<svg width="240" height="280" viewBox="0 0 240 280" fill="none" xmlns="http://www.w3.org/2000/svg">
  <defs>
    <linearGradient id="shield" x1="120" y1="12" x2="120" y2="260" gradientUnits="userSpaceOnUse">
      <stop stop-color="#322B64"/>
      <stop offset="1" stop-color="#12172E"/>
    </linearGradient>
    <linearGradient id="edge" x1="35" y1="30" x2="205" y2="240" gradientUnits="userSpaceOnUse">
      <stop stop-color="#9E8CFF"/>
      <stop offset="0.55" stop-color="#44D7D0"/>
      <stop offset="1" stop-color="#7667D9"/>
    </linearGradient>
  </defs>
  <path d="M120 12L208 43V121C208 184 169 232 120 263C71 232 32 184 32 121V43L120 12Z" fill="url(#shield)" stroke="url(#edge)" stroke-width="5"/>
  <path d="M120 34L187 58V119C187 167 159 204 120 231C81 204 53 167 53 119V58L120 34Z" stroke="#C6BDFF" stroke-opacity="0.4" stroke-width="2"/>
  <path d="M86 183L119 75L154 183" stroke="#50E5DD" stroke-width="10" stroke-linecap="round" stroke-linejoin="round"/>
  <path d="M101 143H140" stroke="#B9AEFF" stroke-width="9" stroke-linecap="round"/>
  <circle cx="120" cy="141" r="58" stroke="#9385F7" stroke-opacity="0.35" stroke-width="2" stroke-dasharray="5 10"/>
</svg>
