<svg xmlns="http://www.w3.org/2000/svg" viewBox="0 0 160 160"><rect width="160" height="160" rx="80" fill="#14231f"/><circle cx="80" cy="61" r="27" fill="#e6c09e"/><path d="M52 57c0-25 15-38 29-38 18 0 31 15 30 38-15-4-27-13-32-24-6 13-15 20-27 24z" fill="#d8d8d8"/><path d="M43 145c7-32 19-47 37-47 19 0 31 15 38 47" fill="#8ccf9d"/><circle cx="70" cy="62" r="3"/><circle cx="91" cy="62" r="3"/><path d="M67 79c9 6 17 6 26 0" fill="none" stroke="#9a6045" stroke-width="3" stroke-linecap="round"/><path d="M56 68h22M83 68h22M78 68h5" stroke="#16362f" stroke-width="3"/></svg>
