<svg xmlns="http://www.w3.org/2000/svg" viewBox="0 0 160 160"><defs><linearGradient id="g" x1="0" x2="1" y1="0" y2="1"><stop stop-color="#091531"/><stop offset="1" stop-color="#602b91"/></linearGradient></defs><rect width="160" height="160" rx="80" fill="url(#g)"/><path d="M30 118c13-18 18-31 24-55 8 13 13 18 26 25 13-9 19-16 27-30 5 24 11 39 24 59-24 15-74 17-101 1z" fill="#2ea9ff" opacity=".65"/><circle cx="80" cy="63" r="27" fill="#ecc5a2"/><path d="M48 61c2-33 20-44 34-44 17 0 32 13 31 42-10-8-18-20-24-32-10 18-25 29-41 34z" fill="#101d3f"/><path d="M40 146c5-35 20-49 40-49s35 14 40 49" fill="#f47a1f"/><circle cx="69" cy="65" r="3"/><circle cx="92" cy="65" r="3"/><path d="M68 78c9 7 16 7 24 0" fill="none" stroke="#9a6045" stroke-width="3" stroke-linecap="round"/></svg>
