<svg xmlns="http://www.w3.org/2000/svg" viewBox="0 0 160 160"><defs><linearGradient id="g"><stop stop-color="#181824"/><stop offset="1" stop-color="#5b2835"/></linearGradient></defs><rect width="160" height="160" rx="80" fill="url(#g)"/><circle cx="80" cy="60" r="27" fill="#e6bb98"/><path d="M49 59c4-25 17-39 32-39 18 0 30 13 31 38-12-7-22-16-28-29-8 16-20 25-35 30z" fill="#351d22"/><path d="M39 145c7-32 21-47 41-47 21 0 35 15 41 47" fill="#e84545"/><circle cx="69" cy="62" r="3"/><circle cx="91" cy="62" r="3"/><path d="M69 76c8 6 15 6 23 0" fill="none" stroke="#9a6045" stroke-width="3" stroke-linecap="round"/></svg>
