<svg xmlns="http://www.w3.org/2000/svg" viewBox="0 0 160 160"><defs><linearGradient id="g" x1="0" y1="0" x2="1" y2="1"><stop stop-color="#0b1725"/><stop offset="1" stop-color="#173f55"/></linearGradient></defs><rect width="160" height="160" rx="80" fill="url(#g)"/><circle cx="80" cy="58" r="28" fill="#e8c6a4"/><path d="M42 145c3-33 18-49 38-49s35 16 38 49" fill="#38d9c6"/><path d="M51 57c3-26 18-39 31-39 19 0 32 15 29 42-11-6-17-17-22-27-11 14-22 20-38 24z" fill="#17202a"/><circle cx="69" cy="61" r="3"/><circle cx="92" cy="61" r="3"/><path d="M70 75c8 6 14 6 22 0" fill="none" stroke="#9a6045" stroke-width="3" stroke-linecap="round"/></svg>
