<svg xmlns="http://www.w3.org/2000/svg" viewBox="0 0 1600 1000">
  <defs>
    <linearGradient id="space" x1="0" y1="0" x2="1" y2="1">
      <stop offset="0" stop-color="#050b1b"/>
      <stop offset=".5" stop-color="#101b3d"/>
      <stop offset="1" stop-color="#071126"/>
    </linearGradient>
    <radialGradient id="sun" cx="50%" cy="45%" r="50%">
      <stop offset="0" stop-color="#ffd84a" stop-opacity=".9"/>
      <stop offset=".22" stop-color="#f47a1f" stop-opacity=".45"/>
      <stop offset="1" stop-color="#2ea9ff" stop-opacity="0"/>
    </radialGradient>
    <filter id="soft"><feGaussianBlur stdDeviation="20"/></filter>
  </defs>
  <rect width="1600" height="1000" fill="url(#space)"/>
  <circle cx="1180" cy="255" r="290" fill="url(#sun)" filter="url(#soft)" opacity=".75"/>
  <path d="M0 790 C320 650 520 770 780 640 C1060 500 1270 570 1600 430 L1600 1000 L0 1000 Z" fill="#071020" opacity=".8"/>
  <path d="M0 845 C310 720 610 820 870 695 C1130 575 1350 635 1600 540" fill="none" stroke="#2ea9ff" stroke-opacity=".18" stroke-width="3"/>
  <path d="M150 160 C350 310 480 180 650 320" fill="none" stroke="#8457d9" stroke-opacity=".22" stroke-width="4"/>
  <g fill="#e4edf7" opacity=".65">
    <circle cx="150" cy="120" r="2"/><circle cx="310" cy="210" r="1.7"/><circle cx="510" cy="100" r="2.2"/><circle cx="730" cy="250" r="1.5"/><circle cx="890" cy="130" r="2"/><circle cx="1020" cy="80" r="1.2"/><circle cx="1390" cy="120" r="2"/><circle cx="1280" cy="460" r="1.5"/><circle cx="250" cy="520" r="1.3"/><circle cx="620" cy="490" r="1.8"/>
  </g>
  <g stroke="#ffd84a" stroke-opacity=".33" fill="none">
    <path d="M1080 365 l45 -78 24 56 52 -95"/><path d="M1210 420 l37 -50 26 35 42 -63"/>
  </g>
</svg>
